<svg width="486" height="553" viewBox="0 0 486 553" fill="none" xmlns="http://www.w3.org/2000/svg">
<g filter="url(#filter0_d_5_4876)">
<path d="M3 43C3 20.9086 20.9086 3 43 3H443C465.091 3 483 20.9086 483 43V500C483 522.091 465.091 540 443 540H243.5H43C20.9086 540 3 522.091 3 500V43Z" fill="white"/>
<path d="M43 1.5C20.0802 1.5 1.5 20.0802 1.5 43V500C1.5 522.92 20.0802 541.5 43 541.5H243.5H443C465.92 541.5 484.5 522.92 484.5 500V43C484.5 20.0802 465.92 1.5 443 1.5H43Z" stroke="black" stroke-width="3"/>
</g>
<defs>
<filter id="filter0_d_5_4876" x="0" y="0" width="486" height="553" filterUnits="userSpaceOnUse" color-interpolation-filters="sRGB">
<feFlood flood-opacity="0" result="BackgroundImageFix"/>
<feColorMatrix in="SourceAlpha" type="matrix" values="0 0 0 0 0 0 0 0 0 0 0 0 0 0 0 0 0 0 127 0" result="hardAlpha"/>
<feOffset dy="10"/>
<feColorMatrix type="matrix" values="0 0 0 0 0 0 0 0 0 0 0 0 0 0 0 0 0 0 1 0"/>
<feBlend mode="normal" in2="BackgroundImageFix" result="effect1_dropShadow_5_4876"/>
<feBlend mode="normal" in="SourceGraphic" in2="effect1_dropShadow_5_4876" result="shape"/>
</filter>
</defs>
</svg>
