<svg width="412" height="105" viewBox="0 0 412 105" fill="none" xmlns="http://www.w3.org/2000/svg">
<path opacity="0.661086" d="M0.752 58V56.464H2.256V48.336H0.752V46.8H6.432C7.104 46.8 7.69067 46.9173 8.192 47.152C8.69333 47.376 9.08267 47.7013 9.36 48.128C9.648 48.544 9.792 49.04 9.792 49.616V49.776C9.792 50.288 9.696 50.7093 9.504 51.04C9.312 51.3707 9.07733 51.6267 8.8 51.808C8.53333 51.9893 8.27733 52.1173 8.032 52.192V52.448C8.27733 52.512 8.53867 52.64 8.816 52.832C9.104 53.0133 9.344 53.2693 9.536 53.6C9.73867 53.9307 9.84 54.3627 9.84 54.896V55.056C9.84 55.6747 9.696 56.2027 9.408 56.64C9.12 57.0773 8.72 57.4133 8.208 57.648C7.70667 57.8827 7.12533 58 6.464 58H0.752ZM4 56.432H6.256C6.832 56.432 7.28533 56.2933 7.616 56.016C7.94667 55.7387 8.112 55.3547 8.112 54.864V54.72C8.112 54.2293 7.94667 53.8453 7.616 53.568C7.296 53.2907 6.84267 53.152 6.256 53.152H4V56.432ZM4 51.568H6.256C6.8 51.568 7.23733 51.4347 7.568 51.168C7.89867 50.8907 8.064 50.5173 8.064 50.048V49.888C8.064 49.4187 7.89867 49.0507 7.568 48.784C7.248 48.5067 6.81067 48.368 6.256 48.368H4V51.568ZM15.4414 58.224C14.6414 58.224 13.9427 58.0587 13.3454 57.728C12.748 57.3867 12.2787 56.912 11.9374 56.304C11.6067 55.6853 11.4414 54.9707 11.4414 54.16V53.968C11.4414 53.1467 11.6067 52.432 11.9374 51.824C12.268 51.2053 12.7267 50.7307 13.3134 50.4C13.9107 50.0587 14.5987 49.888 15.3774 49.888C16.1347 49.888 16.796 50.0587 17.3614 50.4C17.9374 50.7307 18.3854 51.1947 18.7054 51.792C19.0254 52.3893 19.1854 53.088 19.1854 53.888V54.512H13.1214C13.1427 55.2053 13.372 55.76 13.8094 56.176C14.2574 56.5813 14.812 56.784 15.4734 56.784C16.092 56.784 16.556 56.6453 16.8654 56.368C17.1854 56.0907 17.4307 55.7707 17.6014 55.408L18.9614 56.112C18.812 56.4107 18.5934 56.7253 18.3054 57.056C18.028 57.3867 17.66 57.664 17.2014 57.888C16.7427 58.112 16.156 58.224 15.4414 58.224ZM13.1374 53.248H17.5054C17.4627 52.6507 17.2494 52.1867 16.8654 51.856C16.4814 51.5147 15.98 51.344 15.3614 51.344C14.7427 51.344 14.236 51.5147 13.8414 51.856C13.4574 52.1867 13.2227 52.6507 13.1374 53.248ZM28.2073 58C27.7273 58 27.3433 57.856 27.0553 57.568C26.7779 57.28 26.6393 56.896 26.6393 56.416V51.504H24.4633V50.112H26.6393V47.504H28.2873V50.112H30.6393V51.504H28.2873V56.128C28.2873 56.448 28.4366 56.608 28.7352 56.608H30.3833V58H28.2073ZM32.5754 58V46.8H34.2234V51.232H34.4794C34.586 51.0293 34.7354 50.832 34.9274 50.64C35.13 50.448 35.3914 50.2933 35.7114 50.176C36.042 50.048 36.458 49.984 36.9594 49.984C37.5567 49.984 38.0847 50.1173 38.5434 50.384C39.0127 50.6507 39.3807 51.0293 39.6474 51.52C39.914 52 40.0474 52.5813 40.0474 53.264V58H38.3994V53.392C38.3994 52.7093 38.2287 52.208 37.8874 51.888C37.546 51.5573 37.0767 51.392 36.4794 51.392C35.7967 51.392 35.2474 51.616 34.8314 52.064C34.426 52.512 34.2234 53.1627 34.2234 54.016V58H32.5754ZM46.0351 58.224C45.2351 58.224 44.5365 58.0587 43.9391 57.728C43.3418 57.3867 42.8725 56.912 42.5311 56.304C42.2005 55.6853 42.0351 54.9707 42.0351 54.16V53.968C42.0351 53.1467 42.2005 52.432 42.5311 51.824C42.8618 51.2053 43.3205 50.7307 43.9071 50.4C44.5045 50.0587 45.1925 49.888 45.9711 49.888C46.7285 49.888 47.3898 50.0587 47.9551 50.4C48.5311 50.7307 48.9791 51.1947 49.2991 51.792C49.6191 52.3893 49.7791 53.088 49.7791 53.888V54.512H43.7151C43.7365 55.2053 43.9658 55.76 44.4031 56.176C44.8511 56.5813 45.4058 56.784 46.0671 56.784C46.6858 56.784 47.1498 56.6453 47.4591 56.368C47.7791 56.0907 48.0245 55.7707 48.1951 55.408L49.5551 56.112C49.4058 56.4107 49.1871 56.7253 48.8991 57.056C48.6218 57.3867 48.2538 57.664 47.7951 57.888C47.3365 58.112 46.7498 58.224 46.0351 58.224ZM43.7311 53.248H48.0991C48.0565 52.6507 47.8431 52.1867 47.4591 51.856C47.0751 51.5147 46.5738 51.344 45.9551 51.344C45.3365 51.344 44.8298 51.5147 44.4351 51.856C44.0511 52.1867 43.8165 52.6507 43.7311 53.248ZM57.265 58V51.504H55.057V50.112H57.265V48.384C57.265 47.904 57.409 47.52 57.697 47.232C57.985 46.944 58.369 46.8 58.849 46.8H60.881V48.192H59.377C59.0677 48.192 58.913 48.352 58.913 48.672V50.112H61.185V51.504H58.913V58H57.265ZM62.4504 58V50.112H64.0984V58H62.4504ZM63.2824 49.04C62.9624 49.04 62.6904 48.9387 62.4664 48.736C62.253 48.5227 62.1464 48.2507 62.1464 47.92C62.1464 47.5893 62.253 47.3227 62.4664 47.12C62.6904 46.9067 62.9624 46.8 63.2824 46.8C63.613 46.8 63.885 46.9067 64.0984 47.12C64.3117 47.3227 64.4184 47.5893 64.4184 47.92C64.4184 48.2507 64.3117 48.5227 64.0984 48.736C63.885 48.9387 63.613 49.04 63.2824 49.04ZM66.5441 58V50.112H68.1601V51.04H68.4161C68.5441 50.7093 68.7468 50.4693 69.0241 50.32C69.3121 50.16 69.6641 50.08 70.0801 50.08H71.0241V51.568H70.0161C69.4828 51.568 69.0455 51.7173 68.7041 52.016C68.3628 52.304 68.1921 52.752 68.1921 53.36V58H66.5441ZM75.7918 58.224C74.7891 58.224 73.9571 58 73.2958 57.552C72.6344 57.104 72.2291 56.4267 72.0798 55.52L73.6158 55.152C73.7011 55.5893 73.8451 55.936 74.0478 56.192C74.2504 56.448 74.5011 56.6293 74.7998 56.736C75.1091 56.8427 75.4398 56.896 75.7918 56.896C76.3144 56.896 76.7144 56.7947 76.9918 56.592C77.2798 56.3893 77.4238 56.128 77.4238 55.808C77.4238 55.488 77.2904 55.2533 77.0238 55.104C76.7571 54.9547 76.3624 54.832 75.8398 54.736L75.2958 54.64C74.7624 54.544 74.2771 54.4053 73.8398 54.224C73.4024 54.0427 73.0558 53.792 72.7998 53.472C72.5438 53.152 72.4158 52.7413 72.4158 52.24C72.4158 51.4933 72.6931 50.9173 73.2478 50.512C73.8024 50.096 74.5384 49.888 75.4557 49.888C76.3411 49.888 77.0664 50.0907 77.6318 50.496C78.2078 50.8907 78.5811 51.4293 78.7518 52.112L77.2158 52.544C77.1198 52.064 76.9171 51.728 76.6078 51.536C76.2984 51.3333 75.9144 51.232 75.4557 51.232C75.0078 51.232 74.6558 51.3173 74.3998 51.488C74.1438 51.648 74.0158 51.8773 74.0158 52.176C74.0158 52.496 74.1384 52.7307 74.3838 52.88C74.6398 53.0293 74.9811 53.1413 75.4078 53.216L75.9678 53.312C76.5331 53.408 77.0504 53.5413 77.5198 53.712C77.9891 53.8827 78.3571 54.128 78.6238 54.448C78.9011 54.768 79.0398 55.1947 79.0398 55.728C79.0398 56.5173 78.7464 57.1307 78.1598 57.568C77.5731 58.0053 76.7838 58.224 75.7918 58.224ZM83.7541 58C83.2741 58 82.8901 57.856 82.6021 57.568C82.3248 57.28 82.1861 56.896 82.1861 56.416V51.504H80.0101V50.112H82.1861V47.504H83.8341V50.112H86.1861V51.504H83.8341V56.128C83.8341 56.448 83.9835 56.608 84.2821 56.608H85.9301V58H83.7541ZM92.2004 61.2V50.112H93.8164V51.248H94.0724C94.275 50.896 94.579 50.5813 94.9844 50.304C95.4004 50.0267 95.9924 49.888 96.7604 49.888C97.4217 49.888 98.0244 50.048 98.5684 50.368C99.123 50.688 99.5657 51.152 99.8964 51.76C100.238 52.3573 100.408 53.0827 100.408 53.936V54.176C100.408 55.0293 100.243 55.76 99.9124 56.368C99.5817 56.9653 99.139 57.424 98.5844 57.744C98.0297 58.064 97.4217 58.224 96.7604 58.224C96.2484 58.224 95.8164 58.16 95.4644 58.032C95.1124 57.904 94.8297 57.744 94.6164 57.552C94.403 57.3493 94.2324 57.1413 94.1044 56.928H93.8484V61.2H92.2004ZM96.2804 56.784C97.0057 56.784 97.5977 56.5547 98.0564 56.096C98.515 55.6373 98.7444 54.9813 98.7444 54.128V53.984C98.7444 53.1413 98.5097 52.4907 98.0404 52.032C97.5817 51.5733 96.995 51.344 96.2804 51.344C95.5764 51.344 94.9897 51.5733 94.5204 52.032C94.0617 52.4907 93.8324 53.1413 93.8324 53.984V54.128C93.8324 54.9813 94.0617 55.6373 94.5204 56.096C94.9897 56.5547 95.5764 56.784 96.2804 56.784ZM102.45 58V46.8H104.098V58H102.45ZM108.992 58.224C108.427 58.224 107.92 58.128 107.472 57.936C107.035 57.744 106.683 57.4613 106.416 57.088C106.16 56.7147 106.032 56.2613 106.032 55.728C106.032 55.184 106.16 54.736 106.416 54.384C106.683 54.0213 107.04 53.7493 107.488 53.568C107.947 53.3867 108.464 53.296 109.04 53.296H111.44V52.784C111.44 52.3253 111.301 51.9573 111.024 51.68C110.747 51.4027 110.32 51.264 109.744 51.264C109.179 51.264 108.747 51.3973 108.448 51.664C108.149 51.9307 107.952 52.2773 107.856 52.704L106.32 52.208C106.448 51.7813 106.651 51.3973 106.928 51.056C107.216 50.704 107.595 50.4213 108.064 50.208C108.533 49.9947 109.099 49.888 109.76 49.888C110.784 49.888 111.589 50.1493 112.176 50.672C112.763 51.1947 113.056 51.936 113.056 52.896V56.144C113.056 56.464 113.205 56.624 113.504 56.624H114.176V58H112.944C112.571 58 112.267 57.904 112.032 57.712C111.797 57.52 111.68 57.2587 111.68 56.928V56.88H111.44C111.355 57.04 111.227 57.2267 111.056 57.44C110.885 57.6533 110.635 57.84 110.304 58C109.973 58.1493 109.536 58.224 108.992 58.224ZM109.232 56.864C109.893 56.864 110.427 56.6773 110.832 56.304C111.237 55.92 111.44 55.3973 111.44 54.736V54.576H109.136C108.699 54.576 108.347 54.672 108.08 54.864C107.813 55.0453 107.68 55.3173 107.68 55.68C107.68 56.0427 107.819 56.3307 108.096 56.544C108.373 56.7573 108.752 56.864 109.232 56.864ZM116.487 61.2V59.76H120.887C121.186 59.76 121.335 59.6 121.335 59.28V56.848H121.079C120.983 57.0613 120.834 57.2693 120.631 57.472C120.439 57.664 120.178 57.824 119.847 57.952C119.517 58.08 119.101 58.144 118.599 58.144C118.002 58.144 117.469 58.0107 116.999 57.744C116.53 57.4773 116.162 57.0987 115.895 56.608C115.629 56.1173 115.495 55.536 115.495 54.864V50.112H117.143V54.736C117.143 55.4187 117.314 55.9253 117.655 56.256C117.997 56.576 118.471 56.736 119.079 56.736C119.751 56.736 120.29 56.512 120.695 56.064C121.111 55.616 121.319 54.9653 121.319 54.112V50.112H122.967V59.616C122.967 60.096 122.823 60.48 122.535 60.768C122.258 61.056 121.874 61.2 121.383 61.2H116.487ZM129.02 58.224C128.22 58.224 127.521 58.0587 126.924 57.728C126.326 57.3867 125.857 56.912 125.516 56.304C125.185 55.6853 125.02 54.9707 125.02 54.16V53.968C125.02 53.1467 125.185 52.432 125.516 51.824C125.846 51.2053 126.305 50.7307 126.892 50.4C127.489 50.0587 128.177 49.888 128.956 49.888C129.713 49.888 130.374 50.0587 130.94 50.4C131.516 50.7307 131.964 51.1947 132.284 51.792C132.604 52.3893 132.764 53.088 132.764 53.888V54.512H126.7C126.721 55.2053 126.95 55.76 127.388 56.176C127.836 56.5813 128.39 56.784 129.052 56.784C129.67 56.784 130.134 56.6453 130.444 56.368C130.764 56.0907 131.009 55.7707 131.18 55.408L132.54 56.112C132.39 56.4107 132.172 56.7253 131.884 57.056C131.606 57.3867 131.238 57.664 130.78 57.888C130.321 58.112 129.734 58.224 129.02 58.224ZM126.716 53.248H131.084C131.041 52.6507 130.828 52.1867 130.444 51.856C130.06 51.5147 129.558 51.344 128.94 51.344C128.321 51.344 127.814 51.5147 127.42 51.856C127.036 52.1867 126.801 52.6507 126.716 53.248ZM134.747 58V50.112H136.363V51.04H136.619C136.747 50.7093 136.95 50.4693 137.227 50.32C137.515 50.16 137.867 50.08 138.283 50.08H139.227V51.568H138.219C137.686 51.568 137.249 51.7173 136.907 52.016C136.566 52.304 136.395 52.752 136.395 53.36V58H134.747ZM147.973 58C147.493 58 147.109 57.856 146.821 57.568C146.544 57.28 146.405 56.896 146.405 56.416V51.504H144.229V50.112H146.405V47.504H148.053V50.112H150.405V51.504H148.053V56.128C148.053 56.448 148.202 56.608 148.501 56.608H150.149V58H147.973ZM155.756 58.224C154.966 58.224 154.262 58.064 153.644 57.744C153.036 57.4133 152.556 56.944 152.204 56.336C151.852 55.728 151.676 55.008 151.676 54.176V53.936C151.676 53.104 151.852 52.3893 152.204 51.792C152.556 51.184 153.036 50.7147 153.644 50.384C154.262 50.0533 154.966 49.888 155.756 49.888C156.545 49.888 157.249 50.0533 157.868 50.384C158.486 50.7147 158.972 51.184 159.324 51.792C159.676 52.3893 159.852 53.104 159.852 53.936V54.176C159.852 55.008 159.676 55.728 159.324 56.336C158.972 56.944 158.486 57.4133 157.868 57.744C157.249 58.064 156.545 58.224 155.756 58.224ZM155.756 56.752C156.481 56.752 157.068 56.5227 157.516 56.064C157.974 55.5947 158.204 54.9493 158.204 54.128V53.984C158.204 53.1627 157.98 52.5227 157.532 52.064C157.084 51.5947 156.492 51.36 155.756 51.36C155.041 51.36 154.454 51.5947 153.996 52.064C153.548 52.5227 153.324 53.1627 153.324 53.984V54.128C153.324 54.9493 153.548 55.5947 153.996 56.064C154.454 56.5227 155.041 56.752 155.756 56.752ZM169.646 58.224C168.888 58.224 168.2 58.064 167.582 57.744C166.974 57.424 166.488 56.96 166.126 56.352C165.774 55.744 165.598 55.0133 165.598 54.16V53.952C165.598 53.0987 165.774 52.3733 166.126 51.776C166.488 51.168 166.974 50.704 167.582 50.384C168.2 50.0533 168.888 49.888 169.646 49.888C170.403 49.888 171.048 50.0267 171.582 50.304C172.115 50.5813 172.542 50.9493 172.862 51.408C173.192 51.8667 173.406 52.3733 173.502 52.928L171.902 53.264C171.848 52.912 171.736 52.592 171.566 52.304C171.395 52.016 171.155 51.7867 170.846 51.616C170.536 51.4453 170.147 51.36 169.678 51.36C169.219 51.36 168.803 51.4667 168.43 51.68C168.067 51.8827 167.779 52.1813 167.566 52.576C167.352 52.96 167.246 53.4293 167.246 53.984V54.128C167.246 54.6827 167.352 55.1573 167.566 55.552C167.779 55.9467 168.067 56.2453 168.43 56.448C168.803 56.6507 169.219 56.752 169.678 56.752C170.371 56.752 170.899 56.576 171.262 56.224C171.624 55.8613 171.854 55.4027 171.95 54.848L173.55 55.216C173.422 55.76 173.192 56.2613 172.862 56.72C172.542 57.1787 172.115 57.5467 171.582 57.824C171.048 58.0907 170.403 58.224 169.646 58.224ZM179.146 58.224C178.357 58.224 177.653 58.064 177.034 57.744C176.426 57.4133 175.946 56.944 175.594 56.336C175.242 55.728 175.066 55.008 175.066 54.176V53.936C175.066 53.104 175.242 52.3893 175.594 51.792C175.946 51.184 176.426 50.7147 177.034 50.384C177.653 50.0533 178.357 49.888 179.146 49.888C179.936 49.888 180.64 50.0533 181.258 50.384C181.877 50.7147 182.362 51.184 182.714 51.792C183.066 52.3893 183.242 53.104 183.242 53.936V54.176C183.242 55.008 183.066 55.728 182.714 56.336C182.362 56.944 181.877 57.4133 181.258 57.744C180.64 58.064 179.936 58.224 179.146 58.224ZM179.146 56.752C179.872 56.752 180.458 56.5227 180.906 56.064C181.365 55.5947 181.594 54.9493 181.594 54.128V53.984C181.594 53.1627 181.37 52.5227 180.922 52.064C180.474 51.5947 179.882 51.36 179.146 51.36C178.432 51.36 177.845 51.5947 177.386 52.064C176.938 52.5227 176.714 53.1627 176.714 53.984V54.128C176.714 54.9493 176.938 55.5947 177.386 56.064C177.845 56.5227 178.432 56.752 179.146 56.752ZM185.294 58V50.112H186.91V51.296H187.166C187.315 50.976 187.582 50.6773 187.966 50.4C188.35 50.1227 188.921 49.984 189.678 49.984C190.275 49.984 190.803 50.1173 191.262 50.384C191.731 50.6507 192.099 51.0293 192.366 51.52C192.633 52 192.766 52.5813 192.766 53.264V58H191.118V53.392C191.118 52.7093 190.947 52.208 190.606 51.888C190.265 51.5573 189.795 51.392 189.198 51.392C188.515 51.392 187.966 51.616 187.55 52.064C187.145 52.512 186.942 53.1627 186.942 54.016V58H185.294ZM195.138 58V50.112H196.754V51.296H197.01C197.159 50.976 197.426 50.6773 197.81 50.4C198.194 50.1227 198.765 49.984 199.522 49.984C200.119 49.984 200.647 50.1173 201.106 50.384C201.575 50.6507 201.943 51.0293 202.21 51.52C202.477 52 202.61 52.5813 202.61 53.264V58H200.962V53.392C200.962 52.7093 200.791 52.208 200.45 51.888C200.109 51.5573 199.639 51.392 199.042 51.392C198.359 51.392 197.81 51.616 197.394 52.064C196.989 52.512 196.786 53.1627 196.786 54.016V58H195.138ZM208.598 58.224C207.798 58.224 207.099 58.0587 206.502 57.728C205.904 57.3867 205.435 56.912 205.094 56.304C204.763 55.6853 204.598 54.9707 204.598 54.16V53.968C204.598 53.1467 204.763 52.432 205.094 51.824C205.424 51.2053 205.883 50.7307 206.47 50.4C207.067 50.0587 207.755 49.888 208.534 49.888C209.291 49.888 209.952 50.0587 210.518 50.4C211.094 50.7307 211.542 51.1947 211.862 51.792C212.182 52.3893 212.342 53.088 212.342 53.888V54.512H206.278C206.299 55.2053 206.528 55.76 206.966 56.176C207.414 56.5813 207.968 56.784 208.63 56.784C209.248 56.784 209.712 56.6453 210.022 56.368C210.342 56.0907 210.587 55.7707 210.758 55.408L212.118 56.112C211.968 56.4107 211.75 56.7253 211.462 57.056C211.184 57.3867 210.816 57.664 210.358 57.888C209.899 58.112 209.312 58.224 208.598 58.224ZM206.294 53.248H210.662C210.619 52.6507 210.406 52.1867 210.022 51.856C209.638 51.5147 209.136 51.344 208.518 51.344C207.899 51.344 207.392 51.5147 206.998 51.856C206.614 52.1867 206.379 52.6507 206.294 53.248ZM217.989 58.224C217.232 58.224 216.544 58.064 215.925 57.744C215.317 57.424 214.832 56.96 214.469 56.352C214.117 55.744 213.941 55.0133 213.941 54.16V53.952C213.941 53.0987 214.117 52.3733 214.469 51.776C214.832 51.168 215.317 50.704 215.925 50.384C216.544 50.0533 217.232 49.888 217.989 49.888C218.747 49.888 219.392 50.0267 219.925 50.304C220.459 50.5813 220.885 50.9493 221.205 51.408C221.536 51.8667 221.749 52.3733 221.845 52.928L220.245 53.264C220.192 52.912 220.08 52.592 219.909 52.304C219.739 52.016 219.499 51.7867 219.189 51.616C218.88 51.4453 218.491 51.36 218.021 51.36C217.563 51.36 217.147 51.4667 216.773 51.68C216.411 51.8827 216.123 52.1813 215.909 52.576C215.696 52.96 215.589 53.4293 215.589 53.984V54.128C215.589 54.6827 215.696 55.1573 215.909 55.552C216.123 55.9467 216.411 56.2453 216.773 56.448C217.147 56.6507 217.563 56.752 218.021 56.752C218.715 56.752 219.243 56.576 219.605 56.224C219.968 55.8613 220.197 55.4027 220.293 54.848L221.893 55.216C221.765 55.76 221.536 56.2613 221.205 56.72C220.885 57.1787 220.459 57.5467 219.925 57.824C219.392 58.0907 218.747 58.224 217.989 58.224ZM226.457 58C225.977 58 225.593 57.856 225.305 57.568C225.028 57.28 224.889 56.896 224.889 56.416V51.504H222.713V50.112H224.889V47.504H226.537V50.112H228.889V51.504H226.537V56.128C226.537 56.448 226.687 56.608 226.985 56.608H228.633V58H226.457ZM239.816 58V55.712H234.152V53.76L238.44 46.8H241.496V54.224H243.384V55.712H241.496V58H239.816ZM235.784 54.224H239.816V47.856H239.56L235.784 54V54.224ZM252.756 58.224C251.966 58.224 251.262 58.064 250.644 57.744C250.036 57.4133 249.556 56.944 249.204 56.336C248.852 55.728 248.676 55.008 248.676 54.176V53.936C248.676 53.104 248.852 52.3893 249.204 51.792C249.556 51.184 250.036 50.7147 250.644 50.384C251.262 50.0533 251.966 49.888 252.756 49.888C253.545 49.888 254.249 50.0533 254.868 50.384C255.486 50.7147 255.972 51.184 256.324 51.792C256.676 52.3893 256.852 53.104 256.852 53.936V54.176C256.852 55.008 256.676 55.728 256.324 56.336C255.972 56.944 255.486 57.4133 254.868 57.744C254.249 58.064 253.545 58.224 252.756 58.224ZM252.756 56.752C253.481 56.752 254.068 56.5227 254.516 56.064C254.974 55.5947 255.204 54.9493 255.204 54.128V53.984C255.204 53.1627 254.98 52.5227 254.532 52.064C254.084 51.5947 253.492 51.36 252.756 51.36C252.041 51.36 251.454 51.5947 250.996 52.064C250.548 52.5227 250.324 53.1627 250.324 53.984V54.128C250.324 54.9493 250.548 55.5947 250.996 56.064C251.454 56.5227 252.041 56.752 252.756 56.752ZM260.031 58V51.504H257.823V50.112H260.031V48.384C260.031 47.904 260.175 47.52 260.463 47.232C260.751 46.944 261.135 46.8 261.615 46.8H263.647V48.192H262.143C261.833 48.192 261.679 48.352 261.679 48.672V50.112H263.951V51.504H261.679V58H260.031ZM272.676 58C272.196 58 271.812 57.856 271.524 57.568C271.247 57.28 271.108 56.896 271.108 56.416V51.504H268.932V50.112H271.108V47.504H272.756V50.112H275.108V51.504H272.756V56.128C272.756 56.448 272.905 56.608 273.204 56.608H274.852V58H272.676ZM277.044 58V46.8H278.692V51.232H278.948C279.055 51.0293 279.204 50.832 279.396 50.64C279.599 50.448 279.86 50.2933 280.18 50.176C280.511 50.048 280.927 49.984 281.428 49.984C282.025 49.984 282.553 50.1173 283.012 50.384C283.481 50.6507 283.849 51.0293 284.116 51.52C284.383 52 284.516 52.5813 284.516 53.264V58H282.868V53.392C282.868 52.7093 282.697 52.208 282.356 51.888C282.015 51.5573 281.545 51.392 280.948 51.392C280.265 51.392 279.716 51.616 279.3 52.064C278.895 52.512 278.692 53.1627 278.692 54.016V58H277.044ZM290.504 58.224C289.704 58.224 289.005 58.0587 288.408 57.728C287.811 57.3867 287.341 56.912 287 56.304C286.669 55.6853 286.504 54.9707 286.504 54.16V53.968C286.504 53.1467 286.669 52.432 287 51.824C287.331 51.2053 287.789 50.7307 288.376 50.4C288.973 50.0587 289.661 49.888 290.44 49.888C291.197 49.888 291.859 50.0587 292.424 50.4C293 50.7307 293.448 51.1947 293.768 51.792C294.088 52.3893 294.248 53.088 294.248 53.888V54.512H288.184C288.205 55.2053 288.435 55.76 288.872 56.176C289.32 56.5813 289.875 56.784 290.536 56.784C291.155 56.784 291.619 56.6453 291.928 56.368C292.248 56.0907 292.493 55.7707 292.664 55.408L294.024 56.112C293.875 56.4107 293.656 56.7253 293.368 57.056C293.091 57.3867 292.723 57.664 292.264 57.888C291.805 58.112 291.219 58.224 290.504 58.224ZM288.2 53.248H292.568C292.525 52.6507 292.312 52.1867 291.928 51.856C291.544 51.5147 291.043 51.344 290.424 51.344C289.805 51.344 289.299 51.5147 288.904 51.856C288.52 52.1867 288.285 52.6507 288.2 53.248ZM303.542 58.224C302.539 58.224 301.707 58 301.046 57.552C300.384 57.104 299.979 56.4267 299.83 55.52L301.366 55.152C301.451 55.5893 301.595 55.936 301.798 56.192C302 56.448 302.251 56.6293 302.55 56.736C302.859 56.8427 303.19 56.896 303.542 56.896C304.064 56.896 304.464 56.7947 304.742 56.592C305.03 56.3893 305.174 56.128 305.174 55.808C305.174 55.488 305.04 55.2533 304.774 55.104C304.507 54.9547 304.112 54.832 303.59 54.736L303.046 54.64C302.512 54.544 302.027 54.4053 301.59 54.224C301.152 54.0427 300.806 53.792 300.55 53.472C300.294 53.152 300.166 52.7413 300.166 52.24C300.166 51.4933 300.443 50.9173 300.998 50.512C301.552 50.096 302.288 49.888 303.206 49.888C304.091 49.888 304.816 50.0907 305.382 50.496C305.958 50.8907 306.331 51.4293 306.502 52.112L304.966 52.544C304.87 52.064 304.667 51.728 304.358 51.536C304.048 51.3333 303.664 51.232 303.206 51.232C302.758 51.232 302.406 51.3173 302.15 51.488C301.894 51.648 301.766 51.8773 301.766 52.176C301.766 52.496 301.888 52.7307 302.134 52.88C302.39 53.0293 302.731 53.1413 303.158 53.216L303.718 53.312C304.283 53.408 304.8 53.5413 305.27 53.712C305.739 53.8827 306.107 54.128 306.374 54.448C306.651 54.768 306.79 55.1947 306.79 55.728C306.79 56.5173 306.496 57.1307 305.91 57.568C305.323 58.0053 304.534 58.224 303.542 58.224ZM311.102 58.224C310.536 58.224 310.03 58.128 309.582 57.936C309.144 57.744 308.792 57.4613 308.526 57.088C308.27 56.7147 308.142 56.2613 308.142 55.728C308.142 55.184 308.27 54.736 308.526 54.384C308.792 54.0213 309.15 53.7493 309.598 53.568C310.056 53.3867 310.574 53.296 311.15 53.296H313.55V52.784C313.55 52.3253 313.411 51.9573 313.134 51.68C312.856 51.4027 312.43 51.264 311.854 51.264C311.288 51.264 310.856 51.3973 310.558 51.664C310.259 51.9307 310.062 52.2773 309.966 52.704L308.43 52.208C308.558 51.7813 308.76 51.3973 309.038 51.056C309.326 50.704 309.704 50.4213 310.174 50.208C310.643 49.9947 311.208 49.888 311.87 49.888C312.894 49.888 313.699 50.1493 314.286 50.672C314.872 51.1947 315.166 51.936 315.166 52.896V56.144C315.166 56.464 315.315 56.624 315.614 56.624H316.286V58H315.054C314.68 58 314.376 57.904 314.142 57.712C313.907 57.52 313.79 57.2587 313.79 56.928V56.88H313.55C313.464 57.04 313.336 57.2267 313.166 57.44C312.995 57.6533 312.744 57.84 312.414 58C312.083 58.1493 311.646 58.224 311.102 58.224ZM311.342 56.864C312.003 56.864 312.536 56.6773 312.942 56.304C313.347 55.92 313.55 55.3973 313.55 54.736V54.576H311.246C310.808 54.576 310.456 54.672 310.19 54.864C309.923 55.0453 309.789 55.3173 309.789 55.68C309.789 56.0427 309.928 56.3307 310.206 56.544C310.483 56.7573 310.862 56.864 311.342 56.864ZM317.888 58V50.112H319.504V51.04H319.76C319.909 50.7627 320.149 50.5173 320.48 50.304C320.811 50.0907 321.259 49.984 321.824 49.984C322.411 49.984 322.88 50.1067 323.232 50.352C323.595 50.5867 323.867 50.8907 324.048 51.264H324.304C324.485 50.9013 324.747 50.5973 325.088 50.352C325.44 50.1067 325.936 49.984 326.576 49.984C327.088 49.984 327.541 50.0907 327.936 50.304C328.331 50.5067 328.645 50.816 328.88 51.232C329.115 51.6373 329.232 52.144 329.232 52.752V58H327.584V52.88C327.584 52.4 327.451 52.032 327.184 51.776C326.928 51.5093 326.56 51.376 326.08 51.376C325.568 51.376 325.157 51.5413 324.848 51.872C324.539 52.2027 324.384 52.6773 324.384 53.296V58H322.736V52.88C322.736 52.4 322.603 52.032 322.336 51.776C322.08 51.5093 321.712 51.376 321.232 51.376C320.72 51.376 320.309 51.5413 320 51.872C319.691 52.2027 319.536 52.6773 319.536 53.296V58H317.888ZM335.223 58.224C334.423 58.224 333.724 58.0587 333.127 57.728C332.529 57.3867 332.06 56.912 331.719 56.304C331.388 55.6853 331.223 54.9707 331.223 54.16V53.968C331.223 53.1467 331.388 52.432 331.719 51.824C332.049 51.2053 332.508 50.7307 333.095 50.4C333.692 50.0587 334.38 49.888 335.159 49.888C335.916 49.888 336.577 50.0587 337.143 50.4C337.719 50.7307 338.167 51.1947 338.487 51.792C338.807 52.3893 338.967 53.088 338.967 53.888V54.512H332.903C332.924 55.2053 333.153 55.76 333.591 56.176C334.039 56.5813 334.593 56.784 335.255 56.784C335.873 56.784 336.337 56.6453 336.647 56.368C336.967 56.0907 337.212 55.7707 337.383 55.408L338.743 56.112C338.593 56.4107 338.375 56.7253 338.087 57.056C337.809 57.3867 337.441 57.664 336.983 57.888C336.524 58.112 335.937 58.224 335.223 58.224ZM332.919 53.248H337.287C337.244 52.6507 337.031 52.1867 336.647 51.856C336.263 51.5147 335.761 51.344 335.143 51.344C334.524 51.344 334.017 51.5147 333.623 51.856C333.239 52.1867 333.004 52.6507 332.919 53.248ZM348.693 58.224C347.935 58.224 347.247 58.064 346.629 57.744C346.021 57.424 345.535 56.96 345.173 56.352C344.821 55.744 344.645 55.0133 344.645 54.16V53.952C344.645 53.0987 344.821 52.3733 345.173 51.776C345.535 51.168 346.021 50.704 346.629 50.384C347.247 50.0533 347.935 49.888 348.693 49.888C349.45 49.888 350.095 50.0267 350.629 50.304C351.162 50.5813 351.589 50.9493 351.909 51.408C352.239 51.8667 352.453 52.3733 352.549 52.928L350.949 53.264C350.895 52.912 350.783 52.592 350.613 52.304C350.442 52.016 350.202 51.7867 349.893 51.616C349.583 51.4453 349.194 51.36 348.725 51.36C348.266 51.36 347.85 51.4667 347.477 51.68C347.114 51.8827 346.826 52.1813 346.613 52.576C346.399 52.96 346.293 53.4293 346.293 53.984V54.128C346.293 54.6827 346.399 55.1573 346.613 55.552C346.826 55.9467 347.114 56.2453 347.477 56.448C347.85 56.6507 348.266 56.752 348.725 56.752C349.418 56.752 349.946 56.576 350.309 56.224C350.671 55.8613 350.901 55.4027 350.997 54.848L352.597 55.216C352.469 55.76 352.239 56.2613 351.909 56.72C351.589 57.1787 351.162 57.5467 350.629 57.824C350.095 58.0907 349.45 58.224 348.693 58.224ZM358.193 58.224C357.404 58.224 356.7 58.064 356.081 57.744C355.473 57.4133 354.993 56.944 354.641 56.336C354.289 55.728 354.113 55.008 354.113 54.176V53.936C354.113 53.104 354.289 52.3893 354.641 51.792C354.993 51.184 355.473 50.7147 356.081 50.384C356.7 50.0533 357.404 49.888 358.193 49.888C358.983 49.888 359.687 50.0533 360.305 50.384C360.924 50.7147 361.409 51.184 361.761 51.792C362.113 52.3893 362.289 53.104 362.289 53.936V54.176C362.289 55.008 362.113 55.728 361.761 56.336C361.409 56.944 360.924 57.4133 360.305 57.744C359.687 58.064 358.983 58.224 358.193 58.224ZM358.193 56.752C358.919 56.752 359.505 56.5227 359.953 56.064C360.412 55.5947 360.641 54.9493 360.641 54.128V53.984C360.641 53.1627 360.417 52.5227 359.969 52.064C359.521 51.5947 358.929 51.36 358.193 51.36C357.479 51.36 356.892 51.5947 356.433 52.064C355.985 52.5227 355.761 53.1627 355.761 53.984V54.128C355.761 54.9493 355.985 55.5947 356.433 56.064C356.892 56.5227 357.479 56.752 358.193 56.752ZM364.341 58V46.8H365.989V58H364.341ZM372.131 58.224C371.341 58.224 370.637 58.064 370.019 57.744C369.411 57.4133 368.931 56.944 368.579 56.336C368.227 55.728 368.051 55.008 368.051 54.176V53.936C368.051 53.104 368.227 52.3893 368.579 51.792C368.931 51.184 369.411 50.7147 370.019 50.384C370.637 50.0533 371.341 49.888 372.131 49.888C372.92 49.888 373.624 50.0533 374.243 50.384C374.861 50.7147 375.347 51.184 375.699 51.792C376.051 52.3893 376.227 53.104 376.227 53.936V54.176C376.227 55.008 376.051 55.728 375.699 56.336C375.347 56.944 374.861 57.4133 374.243 57.744C373.624 58.064 372.92 58.224 372.131 58.224ZM372.131 56.752C372.856 56.752 373.443 56.5227 373.891 56.064C374.349 55.5947 374.579 54.9493 374.579 54.128V53.984C374.579 53.1627 374.355 52.5227 373.907 52.064C373.459 51.5947 372.867 51.36 372.131 51.36C371.416 51.36 370.829 51.5947 370.371 52.064C369.923 52.5227 369.699 53.1627 369.699 53.984V54.128C369.699 54.9493 369.923 55.5947 370.371 56.064C370.829 56.5227 371.416 56.752 372.131 56.752ZM378.279 58V50.112H379.895V51.04H380.151C380.279 50.7093 380.481 50.4693 380.759 50.32C381.047 50.16 381.399 50.08 381.815 50.08H382.759V51.568H381.751C381.217 51.568 380.78 51.7173 380.439 52.016C380.097 52.304 379.927 52.752 379.927 53.36V58H378.279ZM387.801 58.224C387.001 58.224 386.302 58.0587 385.705 57.728C385.107 57.3867 384.638 56.912 384.297 56.304C383.966 55.6853 383.801 54.9707 383.801 54.16V53.968C383.801 53.1467 383.966 52.432 384.297 51.824C384.627 51.2053 385.086 50.7307 385.673 50.4C386.27 50.0587 386.958 49.888 387.737 49.888C388.494 49.888 389.155 50.0587 389.721 50.4C390.297 50.7307 390.745 51.1947 391.065 51.792C391.385 52.3893 391.545 53.088 391.545 53.888V54.512H385.481C385.502 55.2053 385.731 55.76 386.169 56.176C386.617 56.5813 387.171 56.784 387.833 56.784C388.451 56.784 388.915 56.6453 389.225 56.368C389.545 56.0907 389.79 55.7707 389.961 55.408L391.321 56.112C391.171 56.4107 390.953 56.7253 390.665 57.056C390.387 57.3867 390.019 57.664 389.561 57.888C389.102 58.112 388.515 58.224 387.801 58.224ZM385.497 53.248H389.865C389.822 52.6507 389.609 52.1867 389.225 51.856C388.841 51.5147 388.339 51.344 387.721 51.344C387.102 51.344 386.595 51.5147 386.201 51.856C385.817 52.1867 385.582 52.6507 385.497 53.248ZM396.793 58.224C396.142 58.224 395.539 58.064 394.985 57.744C394.43 57.424 393.982 56.9653 393.641 56.368C393.31 55.76 393.145 55.0293 393.145 54.176V53.936C393.145 53.0933 393.31 52.368 393.641 51.76C393.971 51.152 394.414 50.688 394.969 50.368C395.523 50.048 396.131 49.888 396.793 49.888C397.305 49.888 397.731 49.952 398.073 50.08C398.425 50.208 398.713 50.3733 398.937 50.576C399.161 50.768 399.331 50.9707 399.449 51.184H399.705V46.8H401.352V58H399.737V56.88H399.481C399.278 57.2213 398.969 57.5307 398.553 57.808C398.147 58.0853 397.561 58.224 396.793 58.224ZM397.257 56.784C397.971 56.784 398.558 56.5547 399.017 56.096C399.486 55.6373 399.721 54.9813 399.721 54.128V53.984C399.721 53.1413 399.491 52.4907 399.033 52.032C398.574 51.5733 397.982 51.344 397.257 51.344C396.553 51.344 395.966 51.5733 395.497 52.032C395.038 52.4907 394.809 53.1413 394.809 53.984V54.128C394.809 54.9813 395.038 55.6373 395.497 56.096C395.966 56.5547 396.553 56.784 397.257 56.784ZM4.48 78.224C3.82933 78.224 3.22667 78.064 2.672 77.744C2.11733 77.424 1.66933 76.9653 1.328 76.368C0.997333 75.76 0.832 75.0293 0.832 74.176V73.936C0.832 73.0933 0.997333 72.368 1.328 71.76C1.65867 71.152 2.10133 70.688 2.656 70.368C3.21067 70.048 3.81867 69.888 4.48 69.888C4.992 69.888 5.41867 69.952 5.76 70.08C6.112 70.208 6.4 70.3733 6.624 70.576C6.848 70.768 7.01867 70.9707 7.136 71.184H7.392V66.8H9.04V78H7.424V76.88H7.168C6.96533 77.2213 6.656 77.5307 6.24 77.808C5.83467 78.0853 5.248 78.224 4.48 78.224ZM4.944 76.784C5.65867 76.784 6.24533 76.5547 6.704 76.096C7.17333 75.6373 7.408 74.9813 7.408 74.128V73.984C7.408 73.1413 7.17867 72.4907 6.72 72.032C6.26133 71.5733 5.66933 71.344 4.944 71.344C4.24 71.344 3.65333 71.5733 3.184 72.032C2.72533 72.4907 2.496 73.1413 2.496 73.984V74.128C2.496 74.9813 2.72533 75.6373 3.184 76.096C3.65333 76.5547 4.24 76.784 4.944 76.784ZM11.466 78V70.112H13.114V78H11.466ZM12.298 69.04C11.978 69.04 11.706 68.9387 11.482 68.736C11.2687 68.5227 11.162 68.2507 11.162 67.92C11.162 67.5893 11.2687 67.3227 11.482 67.12C11.706 66.9067 11.978 66.8 12.298 66.8C12.6287 66.8 12.9007 66.9067 13.114 67.12C13.3273 67.3227 13.434 67.5893 13.434 67.92C13.434 68.2507 13.3273 68.5227 13.114 68.736C12.9007 68.9387 12.6287 69.04 12.298 69.04ZM18.7918 78.224C17.7891 78.224 16.9571 78 16.2958 77.552C15.6344 77.104 15.2291 76.4267 15.0798 75.52L16.6158 75.152C16.7011 75.5893 16.8451 75.936 17.0478 76.192C17.2504 76.448 17.5011 76.6293 17.7998 76.736C18.1091 76.8427 18.4398 76.896 18.7918 76.896C19.3144 76.896 19.7144 76.7947 19.9918 76.592C20.2798 76.3893 20.4238 76.128 20.4238 75.808C20.4238 75.488 20.2904 75.2533 20.0238 75.104C19.7571 74.9547 19.3624 74.832 18.8398 74.736L18.2958 74.64C17.7624 74.544 17.2771 74.4053 16.8398 74.224C16.4024 74.0427 16.0558 73.792 15.7998 73.472C15.5438 73.152 15.4158 72.7413 15.4158 72.24C15.4158 71.4933 15.6931 70.9173 16.2478 70.512C16.8024 70.096 17.5384 69.888 18.4557 69.888C19.3411 69.888 20.0664 70.0907 20.6318 70.496C21.2078 70.8907 21.5811 71.4293 21.7518 72.112L20.2158 72.544C20.1198 72.064 19.9171 71.728 19.6078 71.536C19.2984 71.3333 18.9144 71.232 18.4557 71.232C18.0078 71.232 17.6558 71.3173 17.3998 71.488C17.1438 71.648 17.0158 71.8773 17.0158 72.176C17.0158 72.496 17.1384 72.7307 17.3838 72.88C17.6398 73.0293 17.9811 73.1413 18.4078 73.216L18.9678 73.312C19.5331 73.408 20.0504 73.5413 20.5198 73.712C20.9891 73.8827 21.3571 74.128 21.6238 74.448C21.9011 74.768 22.0398 75.1947 22.0398 75.728C22.0398 76.5173 21.7464 77.1307 21.1598 77.568C20.5731 78.0053 19.7838 78.224 18.7918 78.224ZM27.63 78.224C26.8727 78.224 26.1847 78.064 25.566 77.744C24.958 77.424 24.4727 76.96 24.11 76.352C23.758 75.744 23.582 75.0133 23.582 74.16V73.952C23.582 73.0987 23.758 72.3733 24.11 71.776C24.4727 71.168 24.958 70.704 25.566 70.384C26.1847 70.0533 26.8727 69.888 27.63 69.888C28.3873 69.888 29.0327 70.0267 29.566 70.304C30.0993 70.5813 30.526 70.9493 30.846 71.408C31.1767 71.8667 31.39 72.3733 31.486 72.928L29.886 73.264C29.8327 72.912 29.7207 72.592 29.55 72.304C29.3793 72.016 29.1393 71.7867 28.83 71.616C28.5207 71.4453 28.1313 71.36 27.662 71.36C27.2033 71.36 26.7873 71.4667 26.414 71.68C26.0513 71.8827 25.7633 72.1813 25.55 72.576C25.3367 72.96 25.23 73.4293 25.23 73.984V74.128C25.23 74.6827 25.3367 75.1573 25.55 75.552C25.7633 75.9467 26.0513 76.2453 26.414 76.448C26.7873 76.6507 27.2033 76.752 27.662 76.752C28.3553 76.752 28.8833 76.576 29.246 76.224C29.6087 75.8613 29.838 75.4027 29.934 74.848L31.534 75.216C31.406 75.76 31.1767 76.2613 30.846 76.72C30.526 77.1787 30.0993 77.5467 29.566 77.824C29.0327 78.0907 28.3873 78.224 27.63 78.224ZM36.6668 78.224C35.6641 78.224 34.8321 78 34.1708 77.552C33.5094 77.104 33.1041 76.4267 32.9548 75.52L34.4908 75.152C34.5761 75.5893 34.7201 75.936 34.9228 76.192C35.1254 76.448 35.3761 76.6293 35.6748 76.736C35.9841 76.8427 36.3148 76.896 36.6668 76.896C37.1894 76.896 37.5894 76.7947 37.8668 76.592C38.1548 76.3893 38.2988 76.128 38.2988 75.808C38.2988 75.488 38.1654 75.2533 37.8988 75.104C37.6321 74.9547 37.2374 74.832 36.7148 74.736L36.1708 74.64C35.6374 74.544 35.1521 74.4053 34.7148 74.224C34.2774 74.0427 33.9308 73.792 33.6748 73.472C33.4188 73.152 33.2908 72.7413 33.2908 72.24C33.2908 71.4933 33.5681 70.9173 34.1228 70.512C34.6774 70.096 35.4134 69.888 36.3307 69.888C37.2161 69.888 37.9414 70.0907 38.5068 70.496C39.0828 70.8907 39.4561 71.4293 39.6268 72.112L38.0908 72.544C37.9948 72.064 37.7921 71.728 37.4828 71.536C37.1734 71.3333 36.7894 71.232 36.3307 71.232C35.8828 71.232 35.5308 71.3173 35.2748 71.488C35.0188 71.648 34.8908 71.8773 34.8908 72.176C34.8908 72.496 35.0134 72.7307 35.2588 72.88C35.5148 73.0293 35.8561 73.1413 36.2828 73.216L36.8428 73.312C37.4081 73.408 37.9254 73.5413 38.3948 73.712C38.8641 73.8827 39.2321 74.128 39.4988 74.448C39.7761 74.768 39.9148 75.1947 39.9148 75.728C39.9148 76.5173 39.6214 77.1307 39.0348 77.568C38.4481 78.0053 37.6588 78.224 36.6668 78.224ZM45.9191 78V70.112H47.5671V78H45.9191ZM46.7511 69.04C46.4311 69.04 46.1591 68.9387 45.9351 68.736C45.7218 68.5227 45.6151 68.2507 45.6151 67.92C45.6151 67.5893 45.7218 67.3227 45.9351 67.12C46.1591 66.9067 46.4311 66.8 46.7511 66.8C47.0818 66.8 47.3538 66.9067 47.5671 67.12C47.7805 67.3227 47.8871 67.5893 47.8871 67.92C47.8871 68.2507 47.7805 68.5227 47.5671 68.736C47.3538 68.9387 47.0818 69.04 46.7511 69.04ZM50.0129 78V70.112H51.6289V71.296H51.8849C52.0342 70.976 52.3009 70.6773 52.6849 70.4C53.0689 70.1227 53.6395 69.984 54.3969 69.984C54.9942 69.984 55.5222 70.1173 55.9809 70.384C56.4502 70.6507 56.8182 71.0293 57.0849 71.52C57.3515 72 57.4849 72.5813 57.4849 73.264V78H55.8369V73.392C55.8369 72.7093 55.6662 72.208 55.3249 71.888C54.9835 71.5573 54.5142 71.392 53.9169 71.392C53.2342 71.392 52.6849 71.616 52.2689 72.064C51.8635 72.512 51.6609 73.1627 51.6609 74.016V78H50.0129ZM66.3828 78.224C65.8174 78.224 65.3108 78.128 64.8628 77.936C64.4254 77.744 64.0734 77.4613 63.8068 77.088C63.5508 76.7147 63.4228 76.2613 63.4228 75.728C63.4228 75.184 63.5508 74.736 63.8068 74.384C64.0734 74.0213 64.4308 73.7493 64.8788 73.568C65.3374 73.3867 65.8548 73.296 66.4308 73.296H68.8308V72.784C68.8308 72.3253 68.6921 71.9573 68.4148 71.68C68.1374 71.4027 67.7108 71.264 67.1348 71.264C66.5694 71.264 66.1374 71.3973 65.8388 71.664C65.5401 71.9307 65.3428 72.2773 65.2468 72.704L63.7108 72.208C63.8388 71.7813 64.0414 71.3973 64.3188 71.056C64.6068 70.704 64.9854 70.4213 65.4548 70.208C65.9241 69.9947 66.4894 69.888 67.1508 69.888C68.1748 69.888 68.9801 70.1493 69.5668 70.672C70.1534 71.1947 70.4468 71.936 70.4468 72.896V76.144C70.4468 76.464 70.5961 76.624 70.8948 76.624H71.5668V78H70.3348C69.9614 78 69.6574 77.904 69.4228 77.712C69.1881 77.52 69.0708 77.2587 69.0708 76.928V76.88H68.8308C68.7454 77.04 68.6174 77.2267 68.4468 77.44C68.2761 77.6533 68.0254 77.84 67.6948 78C67.3641 78.1493 66.9268 78.224 66.3828 78.224ZM66.6228 76.864C67.2841 76.864 67.8174 76.6773 68.2228 76.304C68.6281 75.92 68.8308 75.3973 68.8308 74.736V74.576H66.5268C66.0894 74.576 65.7374 74.672 65.4708 74.864C65.2041 75.0453 65.0707 75.3173 65.0707 75.68C65.0707 76.0427 65.2094 76.3307 65.4868 76.544C65.7641 76.7573 66.1428 76.864 66.6228 76.864ZM77.2473 78V70.112H78.8633V71.04H79.1193C79.2473 70.7093 79.4499 70.4693 79.7273 70.32C80.0153 70.16 80.3673 70.08 80.7833 70.08H81.7273V71.568H80.7193C80.1859 71.568 79.7486 71.7173 79.4073 72.016C79.0659 72.304 78.8953 72.752 78.8953 73.36V78H77.2473ZM86.8495 78.224C86.0602 78.224 85.3562 78.064 84.7375 77.744C84.1295 77.4133 83.6495 76.944 83.2975 76.336C82.9455 75.728 82.7695 75.008 82.7695 74.176V73.936C82.7695 73.104 82.9455 72.3893 83.2975 71.792C83.6495 71.184 84.1295 70.7147 84.7375 70.384C85.3562 70.0533 86.0602 69.888 86.8495 69.888C87.6388 69.888 88.3428 70.0533 88.9615 70.384C89.5802 70.7147 90.0655 71.184 90.4175 71.792C90.7695 72.3893 90.9455 73.104 90.9455 73.936V74.176C90.9455 75.008 90.7695 75.728 90.4175 76.336C90.0655 76.944 89.5802 77.4133 88.9615 77.744C88.3428 78.064 87.6388 78.224 86.8495 78.224ZM86.8495 76.752C87.5748 76.752 88.1615 76.5227 88.6095 76.064C89.0682 75.5947 89.2975 74.9493 89.2975 74.128V73.984C89.2975 73.1627 89.0735 72.5227 88.6255 72.064C88.1775 71.5947 87.5855 71.36 86.8495 71.36C86.1348 71.36 85.5482 71.5947 85.0895 72.064C84.6415 72.5227 84.4175 73.1627 84.4175 73.984V74.128C84.4175 74.9493 84.6415 75.5947 85.0895 76.064C85.5482 76.5227 86.1348 76.752 86.8495 76.752ZM93.7675 78L92.4235 70.112H94.0715L95.0635 76.896H95.3195L96.6955 70.112H99.3675L100.727 76.896H100.984L101.976 70.112H103.624L102.28 78H99.5115L98.1515 71.232H97.8955L96.5355 78H93.7675ZM114.518 81.84C113.408 81.84 112.464 81.648 111.686 81.264C110.907 80.88 110.315 80.2773 109.91 79.456C109.515 78.6453 109.318 77.6 109.318 76.32V71.52C109.318 70.24 109.515 69.1947 109.91 68.384C110.315 67.5627 110.907 66.96 111.686 66.576C112.464 66.192 113.408 66 114.518 66V67.408C113.302 67.4187 112.395 67.7653 111.798 68.448C111.211 69.12 110.918 70.1653 110.918 71.584V76.256C110.918 77.6747 111.211 78.72 111.798 79.392C112.395 80.0747 113.302 80.4213 114.518 80.432V81.84ZM119.223 78.224C118.423 78.224 117.724 78.0587 117.127 77.728C116.529 77.3867 116.06 76.912 115.719 76.304C115.388 75.6853 115.223 74.9707 115.223 74.16V73.968C115.223 73.1467 115.388 72.432 115.719 71.824C116.049 71.2053 116.508 70.7307 117.095 70.4C117.692 70.0587 118.38 69.888 119.159 69.888C119.916 69.888 120.577 70.0587 121.143 70.4C121.719 70.7307 122.167 71.1947 122.487 71.792C122.807 72.3893 122.967 73.088 122.967 73.888V74.512H116.903C116.924 75.2053 117.153 75.76 117.591 76.176C118.039 76.5813 118.593 76.784 119.255 76.784C119.873 76.784 120.337 76.6453 120.647 76.368C120.967 76.0907 121.212 75.7707 121.383 75.408L122.743 76.112C122.593 76.4107 122.375 76.7253 122.087 77.056C121.809 77.3867 121.441 77.664 120.983 77.888C120.524 78.112 119.937 78.224 119.223 78.224ZM116.919 73.248H121.287C121.244 72.6507 121.031 72.1867 120.647 71.856C120.263 71.5147 119.761 71.344 119.143 71.344C118.524 71.344 118.017 71.5147 117.623 71.856C117.239 72.1867 117.004 72.6507 116.919 73.248ZM124.95 78V70.112H126.598V78H124.95ZM125.782 69.04C125.462 69.04 125.19 68.9387 124.966 68.736C124.753 68.5227 124.646 68.2507 124.646 67.92C124.646 67.5893 124.753 67.3227 124.966 67.12C125.19 66.9067 125.462 66.8 125.782 66.8C126.113 66.8 126.385 66.9067 126.598 67.12C126.812 67.3227 126.918 67.5893 126.918 67.92C126.918 68.2507 126.812 68.5227 126.598 68.736C126.385 68.9387 126.113 69.04 125.782 69.04ZM132.004 78C131.524 78 131.14 77.856 130.852 77.568C130.575 77.28 130.436 76.896 130.436 76.416V71.504H128.26V70.112H130.436V67.504H132.084V70.112H134.436V71.504H132.084V76.128C132.084 76.448 132.233 76.608 132.532 76.608H134.18V78H132.004ZM136.372 78V66.8H138.02V71.232H138.276C138.383 71.0293 138.532 70.832 138.724 70.64C138.927 70.448 139.188 70.2933 139.508 70.176C139.839 70.048 140.255 69.984 140.756 69.984C141.354 69.984 141.882 70.1173 142.34 70.384C142.81 70.6507 143.178 71.0293 143.444 71.52C143.711 72 143.844 72.5813 143.844 73.264V78H142.196V73.392C142.196 72.7093 142.026 72.208 141.684 71.888C141.343 71.5573 140.874 71.392 140.276 71.392C139.594 71.392 139.044 71.616 138.628 72.064C138.223 72.512 138.02 73.1627 138.02 74.016V78H136.372ZM149.832 78.224C149.032 78.224 148.333 78.0587 147.736 77.728C147.139 77.3867 146.669 76.912 146.328 76.304C145.997 75.6853 145.832 74.9707 145.832 74.16V73.968C145.832 73.1467 145.997 72.432 146.328 71.824C146.659 71.2053 147.117 70.7307 147.704 70.4C148.301 70.0587 148.989 69.888 149.768 69.888C150.525 69.888 151.187 70.0587 151.752 70.4C152.328 70.7307 152.776 71.1947 153.096 71.792C153.416 72.3893 153.576 73.088 153.576 73.888V74.512H147.512C147.533 75.2053 147.763 75.76 148.2 76.176C148.648 76.5813 149.203 76.784 149.864 76.784C150.483 76.784 150.947 76.6453 151.256 76.368C151.576 76.0907 151.821 75.7707 151.992 75.408L153.352 76.112C153.203 76.4107 152.984 76.7253 152.696 77.056C152.419 77.3867 152.051 77.664 151.592 77.888C151.133 78.112 150.547 78.224 149.832 78.224ZM147.528 73.248H151.896C151.853 72.6507 151.64 72.1867 151.256 71.856C150.872 71.5147 150.371 71.344 149.752 71.344C149.133 71.344 148.627 71.5147 148.232 71.856C147.848 72.1867 147.613 72.6507 147.528 73.248ZM155.56 78V70.112H157.176V71.04H157.432C157.56 70.7093 157.762 70.4693 158.04 70.32C158.328 70.16 158.68 70.08 159.096 70.08H160.04V71.568H159.032C158.498 71.568 158.061 71.7173 157.72 72.016C157.378 72.304 157.208 72.752 157.208 73.36V78H155.56ZM167.649 78L164.993 70.112H166.737L168.833 76.784H169.089L171.185 70.112H172.929L170.273 78H167.649ZM177.863 78.224C177.063 78.224 176.365 78.0587 175.767 77.728C175.17 77.3867 174.701 76.912 174.359 76.304C174.029 75.6853 173.863 74.9707 173.863 74.16V73.968C173.863 73.1467 174.029 72.432 174.359 71.824C174.69 71.2053 175.149 70.7307 175.735 70.4C176.333 70.0587 177.021 69.888 177.799 69.888C178.557 69.888 179.218 70.0587 179.783 70.4C180.359 70.7307 180.807 71.1947 181.127 71.792C181.447 72.3893 181.607 73.088 181.607 73.888V74.512H175.543C175.565 75.2053 175.794 75.76 176.231 76.176C176.679 76.5813 177.234 76.784 177.895 76.784C178.514 76.784 178.978 76.6453 179.287 76.368C179.607 76.0907 179.853 75.7707 180.023 75.408L181.383 76.112C181.234 76.4107 181.015 76.7253 180.727 77.056C180.45 77.3867 180.082 77.664 179.623 77.888C179.165 78.112 178.578 78.224 177.863 78.224ZM175.559 73.248H179.927C179.885 72.6507 179.671 72.1867 179.287 71.856C178.903 71.5147 178.402 71.344 177.783 71.344C177.165 71.344 176.658 71.5147 176.263 71.856C175.879 72.1867 175.645 72.6507 175.559 73.248ZM183.591 78V70.112H185.207V71.04H185.463C185.591 70.7093 185.794 70.4693 186.071 70.32C186.359 70.16 186.711 70.08 187.127 70.08H188.071V71.568H187.063C186.53 71.568 186.092 71.7173 185.751 72.016C185.41 72.304 185.239 72.752 185.239 73.36V78H183.591ZM192.739 78C192.259 78 191.875 77.856 191.587 77.568C191.309 77.28 191.171 76.896 191.171 76.416V71.504H188.995V70.112H191.171V67.504H192.819V70.112H195.171V71.504H192.819V76.128C192.819 76.448 192.968 76.608 193.266 76.608H194.915V78H192.739ZM197.107 78V70.112H198.755V78H197.107ZM197.939 69.04C197.619 69.04 197.347 68.9387 197.123 68.736C196.909 68.5227 196.803 68.2507 196.803 67.92C196.803 67.5893 196.909 67.3227 197.123 67.12C197.347 66.9067 197.619 66.8 197.939 66.8C198.269 66.8 198.541 66.9067 198.755 67.12C198.968 67.3227 199.075 67.5893 199.075 67.92C199.075 68.2507 198.968 68.5227 198.755 68.736C198.541 68.9387 198.269 69.04 197.939 69.04ZM204.864 78.224C204.107 78.224 203.419 78.064 202.8 77.744C202.192 77.424 201.707 76.96 201.344 76.352C200.992 75.744 200.816 75.0133 200.816 74.16V73.952C200.816 73.0987 200.992 72.3733 201.344 71.776C201.707 71.168 202.192 70.704 202.8 70.384C203.419 70.0533 204.107 69.888 204.864 69.888C205.622 69.888 206.267 70.0267 206.8 70.304C207.334 70.5813 207.76 70.9493 208.08 71.408C208.411 71.8667 208.624 72.3733 208.72 72.928L207.12 73.264C207.067 72.912 206.955 72.592 206.784 72.304C206.614 72.016 206.374 71.7867 206.064 71.616C205.755 71.4453 205.366 71.36 204.896 71.36C204.438 71.36 204.022 71.4667 203.648 71.68C203.286 71.8827 202.998 72.1813 202.784 72.576C202.571 72.96 202.464 73.4293 202.464 73.984V74.128C202.464 74.6827 202.571 75.1573 202.784 75.552C202.998 75.9467 203.286 76.2453 203.648 76.448C204.022 76.6507 204.438 76.752 204.896 76.752C205.59 76.752 206.118 76.576 206.48 76.224C206.843 75.8613 207.072 75.4027 207.168 74.848L208.768 75.216C208.64 75.76 208.411 76.2613 208.08 76.72C207.76 77.1787 207.334 77.5467 206.8 77.824C206.267 78.0907 205.622 78.224 204.864 78.224ZM213.117 78.224C212.552 78.224 212.045 78.128 211.597 77.936C211.16 77.744 210.808 77.4613 210.541 77.088C210.285 76.7147 210.157 76.2613 210.157 75.728C210.157 75.184 210.285 74.736 210.541 74.384C210.808 74.0213 211.165 73.7493 211.613 73.568C212.072 73.3867 212.589 73.296 213.165 73.296H215.565V72.784C215.565 72.3253 215.426 71.9573 215.149 71.68C214.872 71.4027 214.445 71.264 213.869 71.264C213.304 71.264 212.872 71.3973 212.573 71.664C212.274 71.9307 212.077 72.2773 211.981 72.704L210.445 72.208C210.573 71.7813 210.776 71.3973 211.053 71.056C211.341 70.704 211.72 70.4213 212.189 70.208C212.658 69.9947 213.224 69.888 213.885 69.888C214.909 69.888 215.714 70.1493 216.301 70.672C216.888 71.1947 217.181 71.936 217.181 72.896V76.144C217.181 76.464 217.33 76.624 217.629 76.624H218.301V78H217.069C216.696 78 216.392 77.904 216.157 77.712C215.922 77.52 215.805 77.2587 215.805 76.928V76.88H215.565C215.48 77.04 215.352 77.2267 215.181 77.44C215.01 77.6533 214.76 77.84 214.429 78C214.098 78.1493 213.661 78.224 213.117 78.224ZM213.357 76.864C214.018 76.864 214.552 76.6773 214.957 76.304C215.362 75.92 215.565 75.3973 215.565 74.736V74.576H213.261C212.824 74.576 212.472 74.672 212.205 74.864C211.938 75.0453 211.805 75.3173 211.805 75.68C211.805 76.0427 211.944 76.3307 212.221 76.544C212.498 76.7573 212.877 76.864 213.357 76.864ZM219.904 78V66.8H221.552V78H219.904ZM223.997 78V66.8H225.645V78H223.997ZM229.003 81.2V79.76H233.403C233.702 79.76 233.851 79.6 233.851 79.28V76.848H233.595C233.499 77.0613 233.35 77.2693 233.147 77.472C232.955 77.664 232.694 77.824 232.363 77.952C232.032 78.08 231.616 78.144 231.115 78.144C230.518 78.144 229.984 78.0107 229.515 77.744C229.046 77.4773 228.678 77.0987 228.411 76.608C228.144 76.1173 228.011 75.536 228.011 74.864V70.112H229.659V74.736C229.659 75.4187 229.83 75.9253 230.171 76.256C230.512 76.576 230.987 76.736 231.595 76.736C232.267 76.736 232.806 76.512 233.211 76.064C233.627 75.616 233.835 74.9653 233.835 74.112V70.112H235.483V79.616C235.483 80.096 235.339 80.48 235.051 80.768C234.774 81.056 234.39 81.2 233.899 81.2H229.003ZM237.935 80.176V79.232H238.479C238.916 79.232 239.135 79.0133 239.135 78.576V78.064H238.895C238.522 78.064 238.212 77.952 237.967 77.728C237.722 77.504 237.599 77.2213 237.599 76.88C237.599 76.5067 237.722 76.208 237.967 75.984C238.212 75.7493 238.522 75.632 238.895 75.632C239.268 75.632 239.572 75.7547 239.807 76C240.052 76.2347 240.175 76.544 240.175 76.928V78.592C240.175 79.648 239.647 80.176 238.591 80.176H237.935ZM245.872 78V66.8H247.52V71.232H247.776C247.883 71.0293 248.032 70.832 248.224 70.64C248.427 70.448 248.688 70.2933 249.008 70.176C249.339 70.048 249.755 69.984 250.256 69.984C250.854 69.984 251.382 70.1173 251.84 70.384C252.31 70.6507 252.678 71.0293 252.944 71.52C253.211 72 253.344 72.5813 253.344 73.264V78H251.696V73.392C251.696 72.7093 251.526 72.208 251.184 71.888C250.843 71.5573 250.374 71.392 249.776 71.392C249.094 71.392 248.544 71.616 248.128 72.064C247.723 72.512 247.52 73.1627 247.52 74.016V78H245.872ZM259.412 78.224C258.623 78.224 257.919 78.064 257.3 77.744C256.692 77.4133 256.212 76.944 255.86 76.336C255.508 75.728 255.332 75.008 255.332 74.176V73.936C255.332 73.104 255.508 72.3893 255.86 71.792C256.212 71.184 256.692 70.7147 257.3 70.384C257.919 70.0533 258.623 69.888 259.412 69.888C260.201 69.888 260.905 70.0533 261.524 70.384C262.143 70.7147 262.628 71.184 262.98 71.792C263.332 72.3893 263.508 73.104 263.508 73.936V74.176C263.508 75.008 263.332 75.728 262.98 76.336C262.628 76.944 262.143 77.4133 261.524 77.744C260.905 78.064 260.201 78.224 259.412 78.224ZM259.412 76.752C260.137 76.752 260.724 76.5227 261.172 76.064C261.631 75.5947 261.86 74.9493 261.86 74.128V73.984C261.86 73.1627 261.636 72.5227 261.188 72.064C260.74 71.5947 260.148 71.36 259.412 71.36C258.697 71.36 258.111 71.5947 257.652 72.064C257.204 72.5227 256.98 73.1627 256.98 73.984V74.128C256.98 74.9493 257.204 75.5947 257.652 76.064C258.111 76.5227 258.697 76.752 259.412 76.752ZM265.56 78V70.112H267.176V71.04H267.432C267.56 70.7093 267.762 70.4693 268.04 70.32C268.328 70.16 268.68 70.08 269.096 70.08H270.04V71.568H269.032C268.498 71.568 268.061 71.7173 267.72 72.016C267.378 72.304 267.208 72.752 267.208 73.36V78H265.56ZM271.747 78V70.112H273.395V78H271.747ZM272.579 69.04C272.259 69.04 271.987 68.9387 271.763 68.736C271.55 68.5227 271.443 68.2507 271.443 67.92C271.443 67.5893 271.55 67.3227 271.763 67.12C271.987 66.9067 272.259 66.8 272.579 66.8C272.91 66.8 273.182 66.9067 273.395 67.12C273.609 67.3227 273.715 67.5893 273.715 67.92C273.715 68.2507 273.609 68.5227 273.395 68.736C273.182 68.9387 272.91 69.04 272.579 69.04ZM275.521 78V75.984L280.177 71.728V71.504H275.681V70.112H281.969V72.144L277.297 76.4V76.608H282.097V78H275.521ZM287.615 78.224C286.826 78.224 286.122 78.064 285.503 77.744C284.895 77.4133 284.415 76.944 284.063 76.336C283.711 75.728 283.535 75.008 283.535 74.176V73.936C283.535 73.104 283.711 72.3893 284.063 71.792C284.415 71.184 284.895 70.7147 285.503 70.384C286.122 70.0533 286.826 69.888 287.615 69.888C288.404 69.888 289.108 70.0533 289.727 70.384C290.346 70.7147 290.831 71.184 291.183 71.792C291.535 72.3893 291.711 73.104 291.711 73.936V74.176C291.711 75.008 291.535 75.728 291.183 76.336C290.831 76.944 290.346 77.4133 289.727 77.744C289.108 78.064 288.404 78.224 287.615 78.224ZM287.615 76.752C288.34 76.752 288.927 76.5227 289.375 76.064C289.834 75.5947 290.063 74.9493 290.063 74.128V73.984C290.063 73.1627 289.839 72.5227 289.391 72.064C288.943 71.5947 288.351 71.36 287.615 71.36C286.9 71.36 286.314 71.5947 285.855 72.064C285.407 72.5227 285.183 73.1627 285.183 73.984V74.128C285.183 74.9493 285.407 75.5947 285.855 76.064C286.314 76.5227 286.9 76.752 287.615 76.752ZM293.763 78V70.112H295.379V71.296H295.635C295.784 70.976 296.051 70.6773 296.435 70.4C296.819 70.1227 297.39 69.984 298.147 69.984C298.744 69.984 299.272 70.1173 299.731 70.384C300.2 70.6507 300.568 71.0293 300.835 71.52C301.102 72 301.235 72.5813 301.235 73.264V78H299.587V73.392C299.587 72.7093 299.416 72.208 299.075 71.888C298.734 71.5573 298.264 71.392 297.667 71.392C296.984 71.392 296.435 71.616 296.019 72.064C295.614 72.512 295.411 73.1627 295.411 74.016V78H293.763ZM306.348 78C305.868 78 305.484 77.856 305.196 77.568C304.919 77.28 304.78 76.896 304.78 76.416V71.504H302.604V70.112H304.78V67.504H306.428V70.112H308.78V71.504H306.428V76.128C306.428 76.448 306.577 76.608 306.876 76.608H308.524V78H306.348ZM313.148 78.224C312.583 78.224 312.076 78.128 311.628 77.936C311.191 77.744 310.839 77.4613 310.572 77.088C310.316 76.7147 310.188 76.2613 310.188 75.728C310.188 75.184 310.316 74.736 310.572 74.384C310.839 74.0213 311.196 73.7493 311.644 73.568C312.103 73.3867 312.62 73.296 313.196 73.296H315.596V72.784C315.596 72.3253 315.458 71.9573 315.18 71.68C314.903 71.4027 314.476 71.264 313.9 71.264C313.335 71.264 312.903 71.3973 312.604 71.664C312.306 71.9307 312.108 72.2773 312.012 72.704L310.476 72.208C310.604 71.7813 310.807 71.3973 311.084 71.056C311.372 70.704 311.751 70.4213 312.22 70.208C312.69 69.9947 313.255 69.888 313.916 69.888C314.94 69.888 315.746 70.1493 316.332 70.672C316.919 71.1947 317.212 71.936 317.212 72.896V76.144C317.212 76.464 317.362 76.624 317.66 76.624H318.332V78H317.1C316.727 78 316.423 77.904 316.188 77.712C315.954 77.52 315.836 77.2587 315.836 76.928V76.88H315.596C315.511 77.04 315.383 77.2267 315.212 77.44C315.042 77.6533 314.791 77.84 314.46 78C314.13 78.1493 313.692 78.224 313.148 78.224ZM313.388 76.864C314.05 76.864 314.583 76.6773 314.988 76.304C315.394 75.92 315.596 75.3973 315.596 74.736V74.576H313.292C312.855 74.576 312.503 74.672 312.236 74.864C311.97 75.0453 311.836 75.3173 311.836 75.68C311.836 76.0427 311.975 76.3307 312.252 76.544C312.53 76.7573 312.908 76.864 313.388 76.864ZM319.935 78V66.8H321.583V78H319.935ZM324.029 78V66.8H325.677V78H324.029ZM329.034 81.2V79.76H333.434C333.733 79.76 333.882 79.6 333.882 79.28V76.848H333.626C333.53 77.0613 333.381 77.2693 333.178 77.472C332.986 77.664 332.725 77.824 332.394 77.952C332.064 78.08 331.648 78.144 331.146 78.144C330.549 78.144 330.016 78.0107 329.546 77.744C329.077 77.4773 328.709 77.0987 328.442 76.608C328.176 76.1173 328.042 75.536 328.042 74.864V70.112H329.69V74.736C329.69 75.4187 329.861 75.9253 330.202 76.256C330.544 76.576 331.018 76.736 331.626 76.736C332.298 76.736 332.837 76.512 333.242 76.064C333.658 75.616 333.866 74.9653 333.866 74.112V70.112H335.514V79.616C335.514 80.096 335.37 80.48 335.082 80.768C334.805 81.056 334.421 81.2 333.93 81.2H329.034ZM337.966 80.176V79.232H338.51C338.948 79.232 339.166 79.0133 339.166 78.576V78.064H338.926C338.553 78.064 338.244 77.952 337.998 77.728C337.753 77.504 337.63 77.2213 337.63 76.88C337.63 76.5067 337.753 76.208 337.998 75.984C338.244 75.7493 338.553 75.632 338.926 75.632C339.3 75.632 339.604 75.7547 339.838 76C340.084 76.2347 340.206 76.544 340.206 76.928V78.592C340.206 79.648 339.678 80.176 338.622 80.176H337.966ZM349.6 78.224C348.81 78.224 348.106 78.064 347.488 77.744C346.88 77.4133 346.4 76.944 346.048 76.336C345.696 75.728 345.52 75.008 345.52 74.176V73.936C345.52 73.104 345.696 72.3893 346.048 71.792C346.4 71.184 346.88 70.7147 347.488 70.384C348.106 70.0533 348.81 69.888 349.6 69.888C350.389 69.888 351.093 70.0533 351.712 70.384C352.33 70.7147 352.816 71.184 353.168 71.792C353.52 72.3893 353.696 73.104 353.696 73.936V74.176C353.696 75.008 353.52 75.728 353.168 76.336C352.816 76.944 352.33 77.4133 351.712 77.744C351.093 78.064 350.389 78.224 349.6 78.224ZM349.6 76.752C350.325 76.752 350.912 76.5227 351.36 76.064C351.818 75.5947 352.048 74.9493 352.048 74.128V73.984C352.048 73.1627 351.824 72.5227 351.376 72.064C350.928 71.5947 350.336 71.36 349.6 71.36C348.885 71.36 348.298 71.5947 347.84 72.064C347.392 72.5227 347.168 73.1627 347.168 73.984V74.128C347.168 74.9493 347.392 75.5947 347.84 76.064C348.298 76.5227 348.885 76.752 349.6 76.752ZM355.747 78V70.112H357.363V71.04H357.619C357.747 70.7093 357.95 70.4693 358.227 70.32C358.515 70.16 358.867 70.08 359.283 70.08H360.227V71.568H359.219C358.686 71.568 358.249 71.7173 357.907 72.016C357.566 72.304 357.395 72.752 357.395 73.36V78H355.747ZM4.48 98.224C3.82933 98.224 3.22667 98.064 2.672 97.744C2.11733 97.424 1.66933 96.9653 1.328 96.368C0.997333 95.76 0.832 95.0293 0.832 94.176V93.936C0.832 93.0933 0.997333 92.368 1.328 91.76C1.65867 91.152 2.10133 90.688 2.656 90.368C3.21067 90.048 3.81867 89.888 4.48 89.888C4.992 89.888 5.41867 89.952 5.76 90.08C6.112 90.208 6.4 90.3733 6.624 90.576C6.848 90.768 7.01867 90.9707 7.136 91.184H7.392V86.8H9.04V98H7.424V96.88H7.168C6.96533 97.2213 6.656 97.5307 6.24 97.808C5.83467 98.0853 5.248 98.224 4.48 98.224ZM4.944 96.784C5.65867 96.784 6.24533 96.5547 6.704 96.096C7.17333 95.6373 7.408 94.9813 7.408 94.128V93.984C7.408 93.1413 7.17867 92.4907 6.72 92.032C6.26133 91.5733 5.66933 91.344 4.944 91.344C4.24 91.344 3.65333 91.5733 3.184 92.032C2.72533 92.4907 2.496 93.1413 2.496 93.984V94.128C2.496 94.9813 2.72533 95.6373 3.184 96.096C3.65333 96.5547 4.24 96.784 4.944 96.784ZM11.466 98V90.112H13.114V98H11.466ZM12.298 89.04C11.978 89.04 11.706 88.9387 11.482 88.736C11.2687 88.5227 11.162 88.2507 11.162 87.92C11.162 87.5893 11.2687 87.3227 11.482 87.12C11.706 86.9067 11.978 86.8 12.298 86.8C12.6287 86.8 12.9007 86.9067 13.114 87.12C13.3273 87.3227 13.434 87.5893 13.434 87.92C13.434 88.2507 13.3273 88.5227 13.114 88.736C12.9007 88.9387 12.6287 89.04 12.298 89.04ZM18.0078 98.224C17.4424 98.224 16.9358 98.128 16.4878 97.936C16.0504 97.744 15.6984 97.4613 15.4318 97.088C15.1758 96.7147 15.0478 96.2613 15.0478 95.728C15.0478 95.184 15.1758 94.736 15.4318 94.384C15.6984 94.0213 16.0558 93.7493 16.5038 93.568C16.9624 93.3867 17.4798 93.296 18.0558 93.296H20.4558V92.784C20.4558 92.3253 20.3171 91.9573 20.0398 91.68C19.7624 91.4027 19.3358 91.264 18.7598 91.264C18.1944 91.264 17.7624 91.3973 17.4638 91.664C17.1651 91.9307 16.9678 92.2773 16.8718 92.704L15.3358 92.208C15.4638 91.7813 15.6664 91.3973 15.9438 91.056C16.2318 90.704 16.6104 90.4213 17.0798 90.208C17.5491 89.9947 18.1144 89.888 18.7758 89.888C19.7998 89.888 20.6051 90.1493 21.1918 90.672C21.7784 91.1947 22.0718 91.936 22.0718 92.896V96.144C22.0718 96.464 22.2211 96.624 22.5198 96.624H23.1918V98H21.9598C21.5864 98 21.2824 97.904 21.0478 97.712C20.8131 97.52 20.6958 97.2587 20.6958 96.928V96.88H20.4558C20.3704 97.04 20.2424 97.2267 20.0718 97.44C19.9011 97.6533 19.6504 97.84 19.3198 98C18.9891 98.1493 18.5518 98.224 18.0078 98.224ZM18.2478 96.864C18.9091 96.864 19.4424 96.6773 19.8478 96.304C20.2531 95.92 20.4558 95.3973 20.4558 94.736V94.576H18.1518C17.7144 94.576 17.3624 94.672 17.0958 94.864C16.8291 95.0453 16.6957 95.3173 16.6957 95.68C16.6957 96.0427 16.8344 96.3307 17.1118 96.544C17.3891 96.7573 17.7678 96.864 18.2478 96.864ZM24.2226 94.096V93.856C24.2226 93.024 24.388 92.3147 24.7186 91.728C25.06 91.1413 25.508 90.688 26.0626 90.368C26.6173 90.048 27.2253 89.888 27.8866 89.888C28.6546 89.888 29.2413 90.032 29.6466 90.32C30.0626 90.608 30.3666 90.9173 30.5586 91.248H30.8146V90.112H32.4146V99.616C32.4146 100.096 32.2706 100.48 31.9826 100.768C31.7053 101.056 31.3213 101.2 30.8306 101.2H25.5186V99.76H30.3186C30.628 99.76 30.7826 99.6 30.7826 99.28V96.768H30.5266C30.4093 96.96 30.244 97.1573 30.0306 97.36C29.8173 97.5627 29.5346 97.728 29.1826 97.856C28.8413 97.984 28.4093 98.048 27.8866 98.048C27.2253 98.048 26.612 97.8933 26.0466 97.584C25.492 97.264 25.0493 96.8107 24.7186 96.224C24.388 95.6267 24.2226 94.9173 24.2226 94.096ZM28.3346 96.608C29.0493 96.608 29.636 96.384 30.0946 95.936C30.564 95.4773 30.7986 94.848 30.7986 94.048V93.904C30.7986 93.0827 30.5693 92.4533 30.1106 92.016C29.652 91.568 29.06 91.344 28.3346 91.344C27.6306 91.344 27.044 91.568 26.5746 92.016C26.116 92.4533 25.8866 93.0827 25.8866 93.904V94.048C25.8866 94.848 26.116 95.4773 26.5746 95.936C27.044 96.384 27.6306 96.608 28.3346 96.608ZM38.537 98.224C37.7477 98.224 37.0437 98.064 36.425 97.744C35.817 97.4133 35.337 96.944 34.985 96.336C34.633 95.728 34.457 95.008 34.457 94.176V93.936C34.457 93.104 34.633 92.3893 34.985 91.792C35.337 91.184 35.817 90.7147 36.425 90.384C37.0437 90.0533 37.7477 89.888 38.537 89.888C39.3263 89.888 40.0303 90.0533 40.649 90.384C41.2677 90.7147 41.753 91.184 42.105 91.792C42.457 92.3893 42.633 93.104 42.633 93.936V94.176C42.633 95.008 42.457 95.728 42.105 96.336C41.753 96.944 41.2677 97.4133 40.649 97.744C40.0303 98.064 39.3263 98.224 38.537 98.224ZM38.537 96.752C39.2623 96.752 39.849 96.5227 40.297 96.064C40.7557 95.5947 40.985 94.9493 40.985 94.128V93.984C40.985 93.1627 40.761 92.5227 40.313 92.064C39.865 91.5947 39.273 91.36 38.537 91.36C37.8223 91.36 37.2357 91.5947 36.777 92.064C36.329 92.5227 36.105 93.1627 36.105 93.984V94.128C36.105 94.9493 36.329 95.5947 36.777 96.064C37.2357 96.5227 37.8223 96.752 38.537 96.752ZM44.6848 98V90.112H46.3008V91.296H46.5568C46.7061 90.976 46.9728 90.6773 47.3568 90.4C47.7408 90.1227 48.3114 89.984 49.0688 89.984C49.6661 89.984 50.1941 90.1173 50.6528 90.384C51.1221 90.6507 51.4901 91.0293 51.7568 91.52C52.0234 92 52.1568 92.5813 52.1568 93.264V98H50.5088V93.392C50.5088 92.7093 50.3381 92.208 49.9968 91.888C49.6554 91.5573 49.1861 91.392 48.5888 91.392C47.9061 91.392 47.3568 91.616 46.9408 92.064C46.5354 92.512 46.3328 93.1627 46.3328 94.016V98H44.6848ZM56.9765 98.224C56.4112 98.224 55.9045 98.128 55.4565 97.936C55.0192 97.744 54.6672 97.4613 54.4005 97.088C54.1445 96.7147 54.0165 96.2613 54.0165 95.728C54.0165 95.184 54.1445 94.736 54.4005 94.384C54.6672 94.0213 55.0245 93.7493 55.4725 93.568C55.9312 93.3867 56.4485 93.296 57.0245 93.296H59.4245V92.784C59.4245 92.3253 59.2858 91.9573 59.0085 91.68C58.7312 91.4027 58.3045 91.264 57.7285 91.264C57.1632 91.264 56.7312 91.3973 56.4325 91.664C56.1338 91.9307 55.9365 92.2773 55.8405 92.704L54.3045 92.208C54.4325 91.7813 54.6352 91.3973 54.9125 91.056C55.2005 90.704 55.5792 90.4213 56.0485 90.208C56.5178 89.9947 57.0832 89.888 57.7445 89.888C58.7685 89.888 59.5738 90.1493 60.1605 90.672C60.7472 91.1947 61.0405 91.936 61.0405 92.896V96.144C61.0405 96.464 61.1898 96.624 61.4885 96.624H62.1605V98H60.9285C60.5552 98 60.2512 97.904 60.0165 97.712C59.7818 97.52 59.6645 97.2587 59.6645 96.928V96.88H59.4245C59.3392 97.04 59.2112 97.2267 59.0405 97.44C58.8698 97.6533 58.6192 97.84 58.2885 98C57.9578 98.1493 57.5205 98.224 56.9765 98.224ZM57.2165 96.864C57.8778 96.864 58.4112 96.6773 58.8165 96.304C59.2218 95.92 59.4245 95.3973 59.4245 94.736V94.576H57.1205C56.6832 94.576 56.3312 94.672 56.0645 94.864C55.7978 95.0453 55.6645 95.3173 55.6645 95.68C55.6645 96.0427 55.8032 96.3307 56.0805 96.544C56.3578 96.7573 56.7365 96.864 57.2165 96.864ZM63.7629 98V86.8H65.4109V98H63.7629ZM67.8566 98V86.8H69.5046V98H67.8566ZM72.8624 101.2V99.76H77.2624C77.561 99.76 77.7104 99.6 77.7104 99.28V96.848H77.4544C77.3584 97.0613 77.209 97.2693 77.0064 97.472C76.8144 97.664 76.553 97.824 76.2224 97.952C75.8917 98.08 75.4757 98.144 74.9744 98.144C74.377 98.144 73.8437 98.0107 73.3744 97.744C72.905 97.4773 72.537 97.0987 72.2704 96.608C72.0037 96.1173 71.8704 95.536 71.8704 94.864V90.112H73.5184V94.736C73.5184 95.4187 73.689 95.9253 74.0304 96.256C74.3717 96.576 74.8464 96.736 75.4544 96.736C76.1264 96.736 76.665 96.512 77.0704 96.064C77.4864 95.616 77.6944 94.9653 77.6944 94.112V90.112H79.3424V99.616C79.3424 100.096 79.1984 100.48 78.9104 100.768C78.633 101.056 78.249 101.2 77.7584 101.2H72.8624ZM80.6105 101.84V100.432C81.8478 100.421 82.7598 100.075 83.3465 99.392C83.9332 98.72 84.2265 97.6747 84.2265 96.256V91.584C84.2265 90.1653 83.9332 89.12 83.3465 88.448C82.7598 87.7653 81.8478 87.4187 80.6105 87.408V86C81.7305 86 82.6745 86.192 83.4425 86.576C84.2212 86.96 84.8078 87.5627 85.2025 88.384C85.6078 89.1947 85.8105 90.24 85.8105 91.52V96.32C85.8105 97.6 85.6078 98.6453 85.2025 99.456C84.8078 100.277 84.2212 100.88 83.4425 101.264C82.6745 101.648 81.7305 101.84 80.6105 101.84ZM88.8955 98.224C88.5222 98.224 88.2075 98.1013 87.9515 97.856C87.7062 97.6107 87.5835 97.296 87.5835 96.912C87.5835 96.528 87.7062 96.2187 87.9515 95.984C88.2075 95.7387 88.5222 95.616 88.8955 95.616C89.2688 95.616 89.5782 95.7387 89.8235 95.984C90.0795 96.2293 90.2075 96.5387 90.2075 96.912C90.2075 97.296 90.0795 97.6107 89.8235 97.856C89.5782 98.1013 89.2688 98.224 88.8955 98.224Z" fill="black"/>
<path d="M6.76 20.28C5 20.28 3.6 19.8 2.56 18.84C1.52 17.8667 1 16.48 1 14.68V11.32C1 9.52 1.52 8.14 2.56 7.18C3.6 6.20667 5 5.72 6.76 5.72C8.52 5.72 9.92 6.20667 10.96 7.18C12 8.14 12.52 9.52 12.52 11.32V14.68C12.52 16.48 12 17.8667 10.96 18.84C9.92 19.8 8.52 20.28 6.76 20.28ZM6.76 17.92C7.74667 17.92 8.51333 17.6333 9.06 17.06C9.60667 16.4867 9.88 15.72 9.88 14.76V11.24C9.88 10.28 9.60667 9.51333 9.06 8.94C8.51333 8.36667 7.74667 8.08 6.76 8.08C5.78667 8.08 5.02 8.36667 4.46 8.94C3.91333 9.51333 3.64 10.28 3.64 11.24V14.76C3.64 15.72 3.91333 16.4867 4.46 17.06C5.02 17.6333 5.78667 17.92 6.76 17.92ZM13.9864 20V17.68H15.8264V8.32H13.9864V6H21.1864C22.0397 6 22.7797 6.14667 23.4064 6.44C24.0464 6.72 24.5397 7.12667 24.8864 7.66C25.2464 8.18 25.4264 8.80667 25.4264 9.54V9.74C25.4264 10.38 25.3064 10.9067 25.0664 11.32C24.8264 11.72 24.5397 12.0333 24.2064 12.26C23.8864 12.4733 23.5797 12.6267 23.2864 12.72V13.08C23.5797 13.16 23.8997 13.3133 24.2464 13.54C24.5931 13.7533 24.8864 14.0667 25.1264 14.48C25.3797 14.8933 25.5064 15.4333 25.5064 16.1V16.3C25.5064 17.0733 25.3264 17.74 24.9664 18.3C24.6064 18.8467 24.1064 19.2667 23.4664 19.56C22.8397 19.8533 22.1064 20 21.2664 20H13.9864ZM18.4664 17.6H20.9464C21.5197 17.6 21.9797 17.46 22.3264 17.18C22.6864 16.9 22.8664 16.5 22.8664 15.98V15.78C22.8664 15.26 22.6931 14.86 22.3464 14.58C21.9997 14.3 21.5331 14.16 20.9464 14.16H18.4664V17.6ZM18.4664 11.76H20.9064C21.4531 11.76 21.8997 11.62 22.2464 11.34C22.6064 11.06 22.7864 10.6733 22.7864 10.18V9.98C22.7864 9.47333 22.6131 9.08667 22.2664 8.82C21.9197 8.54 21.4664 8.4 20.9064 8.4H18.4664V11.76ZM31.6877 20.28C30.2477 20.28 29.101 19.8867 28.2477 19.1C27.4077 18.3133 26.9877 17.2133 26.9877 15.8V14.48H29.6277V15.8C29.6277 16.4267 29.801 16.92 30.1477 17.28C30.4943 17.6267 30.981 17.8 31.6077 17.8C32.1943 17.8 32.6477 17.6267 32.9677 17.28C33.301 16.9333 33.4677 16.44 33.4677 15.8V8.4H31.0677V6H37.7077V8.4H36.1077V15.8C36.1077 17.2533 35.7143 18.3667 34.9277 19.14C34.141 19.9 33.061 20.28 31.6877 20.28ZM39.8747 20V6H48.8747V8.4H42.5147V11.74H48.3147V14.14H42.5147V17.6H48.9947V20H39.8747ZM56.2689 20.28C54.5356 20.28 53.1622 19.8 52.1489 18.84C51.1356 17.8667 50.6289 16.48 50.6289 14.68V11.32C50.6289 9.52 51.1356 8.14 52.1489 7.18C53.1622 6.20667 54.5356 5.72 56.2689 5.72C57.9889 5.72 59.3156 6.19333 60.2489 7.14C61.1956 8.07333 61.6689 9.36 61.6689 11V11.12H59.0689V10.92C59.0689 10.0933 58.8356 9.41333 58.3689 8.88C57.9156 8.34667 57.2156 8.08 56.2689 8.08C55.3356 8.08 54.6022 8.36667 54.0689 8.94C53.5356 9.51333 53.2689 10.2933 53.2689 11.28V14.72C53.2689 15.6933 53.5356 16.4733 54.0689 17.06C54.6022 17.6333 55.3356 17.92 56.2689 17.92C57.2156 17.92 57.9156 17.6533 58.3689 17.12C58.8356 16.5733 59.0689 15.8933 59.0689 15.08V14.72H61.6689V15C61.6689 16.64 61.1956 17.9333 60.2489 18.88C59.3156 19.8133 57.9889 20.28 56.2689 20.28ZM66.7866 20V8.4H62.7066V6H73.5066V8.4H69.4266V20H66.7866ZM75.3044 20V6H77.9444V20H75.3044ZM83.1778 20L79.6178 6H82.3378L85.2978 18.3H85.5778L88.5378 6H91.2578L87.6978 20H83.1778ZM92.9411 20V6H101.941V8.4H95.5811V11.74H101.381V14.14H95.5811V17.6H102.061V20H92.9411Z" fill="#7945FF"/>
</svg>
