<svg width="163" height="41" viewBox="0 0 163 41" fill="none" xmlns="http://www.w3.org/2000/svg">
<path d="M0.0319375 40V0.799997H17.0559C19.5199 0.799997 21.6666 1.22933 23.4959 2.088C25.3253 2.94666 26.7439 4.16 27.7519 5.728C28.7599 7.296 29.2639 9.144 29.2639 11.272V11.944C29.2639 14.296 28.7039 16.2 27.5839 17.656C26.4639 19.112 25.0826 20.176 23.4399 20.848V21.856C24.9333 21.9307 26.0906 22.4533 26.9119 23.424C27.7333 24.3573 28.1439 25.608 28.1439 27.176V40H20.7519V28.24C20.7519 27.344 20.5093 26.616 20.0239 26.056C19.5759 25.496 18.8106 25.216 17.7279 25.216H7.42394V40H0.0319375ZM7.42394 18.496H16.2719C18.0266 18.496 19.3893 18.0293 20.3599 17.096C21.3679 16.1253 21.8719 14.856 21.8719 13.288V12.728C21.8719 11.16 21.3866 9.90933 20.4159 8.976C19.4453 8.00533 18.0639 7.52 16.2719 7.52H7.42394V18.496ZM50.5348 40.784C47.3241 40.784 44.5614 40.2053 42.2468 39.048C39.9694 37.8533 38.2148 36.1733 36.9828 34.008C35.7881 31.8053 35.1908 29.2107 35.1908 26.224V0.799997H42.5828V26.448C42.5828 28.8373 43.2548 30.7227 44.5988 32.104C45.9801 33.4853 47.9588 34.176 50.5348 34.176C53.1108 34.176 55.0708 33.4853 56.4148 32.104C57.7961 30.7227 58.4868 28.8373 58.4868 26.448V0.799997H65.8788V26.224C65.8788 29.2107 65.2628 31.8053 64.0308 34.008C62.8361 36.1733 61.0814 37.8533 58.7668 39.048C56.4894 40.2053 53.7454 40.784 50.5348 40.784ZM73.0397 40V0.799997H80.4318V33.28H98.3518V40H73.0397ZM103.391 40V0.799997H128.591V7.52H110.783V16.872H127.023V23.592H110.783V33.28H128.927V40H103.391ZM148.007 40.784C144.983 40.784 142.314 40.2427 139.999 39.16C137.684 38.0773 135.874 36.528 134.567 34.512C133.26 32.496 132.607 30.0693 132.607 27.232V25.664H139.887V27.232C139.887 29.584 140.615 31.3573 142.071 32.552C143.527 33.7093 145.506 34.288 148.007 34.288C150.546 34.288 152.431 33.784 153.663 32.776C154.932 31.768 155.567 30.48 155.567 28.912C155.567 27.8293 155.25 26.952 154.615 26.28C154.018 25.608 153.122 25.0667 151.927 24.656C150.77 24.208 149.351 23.7973 147.671 23.424L146.383 23.144C143.695 22.5467 141.38 21.8 139.439 20.904C137.535 19.9707 136.06 18.7573 135.015 17.264C134.007 15.7707 133.503 13.8293 133.503 11.44C133.503 9.05067 134.063 7.016 135.183 5.336C136.34 3.61867 137.946 2.312 139.999 1.416C142.09 0.482665 144.535 0.0159974 147.335 0.0159974C150.135 0.0159974 152.618 0.501331 154.783 1.472C156.986 2.40533 158.703 3.824 159.935 5.728C161.204 7.59466 161.839 9.94666 161.839 12.784V14.464H154.559V12.784C154.559 11.2907 154.26 10.096 153.663 9.2C153.103 8.26666 152.282 7.59466 151.199 7.184C150.116 6.736 148.828 6.512 147.335 6.512C145.095 6.512 143.434 6.94133 142.351 7.8C141.306 8.62133 140.783 9.76 140.783 11.216C140.783 12.1867 141.026 13.008 141.511 13.68C142.034 14.352 142.799 14.912 143.807 15.36C144.815 15.808 146.103 16.2 147.671 16.536L148.959 16.816C151.759 17.4133 154.186 18.1787 156.239 19.112C158.33 20.0453 159.954 21.2773 161.111 22.808C162.268 24.3387 162.847 26.2987 162.847 28.688C162.847 31.0773 162.231 33.1867 160.999 35.016C159.804 36.808 158.087 38.2267 155.847 39.272C153.644 40.28 151.031 40.784 148.007 40.784Z" fill="black"/>
</svg>
